# xmcd
#
# Track frame offsets:
#	150
#	16686
#	39548
#	65953
#	87749
#	108409
#	126433
#	148266
#	164199
#	185980
#	204365
#	224250
#	239685
#	256833
#	282825
#	313023
#	331096
#
# Disc length: 4645 seconds
#
# Revision: 1
# Processed by: cddbd v1.4PL0 Copyright (c) Steve Scherf et al.
# Submitted via: audiograbber 1.81.02
#
DISCID=13122311
DTITLE=Elton John - POP colection
DYEAR=2003
DGENRE=Pop
TTITLE0=Sorry Seems to be the Hardest world
TTITLE1=Sacriface
TTITLE2=The one
TTITLE3=Circle of live
TTITLE4=I want love
TTITLE5=Can you feel the love
TTITLE6=Nikita
TTITLE7=True love
TTITLE8=My heart dances
TTITLE9=Blessed
TTITLE10=Dark Diamond
TTITLE11=Blue eyes
TTITLE12=Candle in the wind
TTITLE13=Don't let the sun go down on me
TTITLE14=Someone sage my life tonight
TTITLE15=Your song
TTITLE16=Daniel
EXTD=
EXTT0=
EXTT1=
EXTT2=
EXTT3=
EXTT4=
EXTT5=
EXTT6=
EXTT7=
EXTT8=
EXTT9=
EXTT10=
EXTT11=
EXTT12=
EXTT13=
EXTT14=
EXTT15=
EXTT16=
PLAYORDER=
